<?xml version="1.0" encoding="utf-8"?>
<!-- Generator: Adobe Illustrator 24.2.3, SVG Export Plug-In . SVG Version: 6.00 Build 0)  -->
<svg version="1.1" id="Layer_1" xmlns="http://www.w3.org/2000/svg" xmlns:xlink="http://www.w3.org/1999/xlink" x="0px" y="0px"
	 viewBox="0 0 32 32" style="enable-background:new 0 0 32 32;" xml:space="preserve">
<style type="text/css">
	.st0{fill:#1A1A1A;}
	.st1{fill:#FFFFFF;}
</style>
<path class="st0" d="M26.5,32H5.5c-3,0-5.5-2.4-5.5-5.5V5.5C0,2.4,2.4,0,5.5,0h21.1c3,0,5.5,2.4,5.5,5.5v21.1
	C32,29.6,29.6,32,26.5,32z"/>
<g>
	<path class="st1" d="M10.7,15.4v6.2c0,1.1,0.1,1.8,0.2,2.3c0.1,0.5,0.3,0.9,0.7,1.3c0.3,0.3,0.6,0.5,1,0.7c0.4,0.1,0.9,0.2,1.5,0.3
		v0.4H4v-0.4c0.5,0,1-0.1,1.4-0.2c0.4-0.2,0.8-0.4,1-0.6c0.3-0.3,0.5-0.8,0.6-1.3c0.1-0.6,0.2-1.3,0.2-2.3V10.1c0-0.7,0-1.4-0.1-2.1
		C7.1,7.1,6.6,6.5,5.8,6C5.4,5.8,4.8,5.6,4,5.6V5.2h16.3l0.5,5.1l-0.4,0.1c-0.3-0.8-0.5-1.4-0.7-1.8c-0.5-0.9-1.2-1.6-2.1-2.1
		c-0.5-0.3-1.1-0.5-1.8-0.6c-0.7-0.1-1.6-0.2-2.7-0.2h-2.4v9.2h0.6c1.8,0,3.2-0.4,4-1.2c0.4-0.4,0.6-0.8,0.8-1.3
		c0.2-0.5,0.3-1.1,0.4-1.9l0.4,0L16.8,20h-0.4c-0.1-1.1-0.3-1.9-0.6-2.5c-0.3-0.6-0.7-1-1.3-1.4c-0.4-0.3-0.9-0.4-1.5-0.6
		C12.4,15.4,11.6,15.4,10.7,15.4z"/>
	<path class="st1" d="M23.3,13.4h3.9V14h-3.9v9c0,1.1,0.2,1.8,0.6,2.3c0.2,0.3,0.5,0.5,0.8,0.6c0.3,0.1,0.7,0.2,1,0.2
		c0.5,0,0.8-0.1,1.2-0.3c0.3-0.2,0.6-0.5,1-1l0.2,0.2c-0.3,0.6-0.8,1.1-1.4,1.4c-0.6,0.3-1.4,0.4-2.3,0.4c-1.2,0-2.1-0.2-2.6-0.7
		c-0.3-0.2-0.5-0.5-0.6-0.9c-0.1-0.3-0.1-1-0.1-1.9V14h-1.6v-0.2c0.7-0.2,1.3-0.6,1.8-1.2c0.3-0.4,0.6-0.8,0.8-1.1
		c0.2-0.4,0.4-0.9,0.6-1.5l0.2-0.5h0.6V13.4z"/>
</g>
</svg>
