<?xml version="1.0" encoding="utf-8"?>
<!-- Generator: Adobe Illustrator 24.2.3, SVG Export Plug-In . SVG Version: 6.00 Build 0)  -->
<svg version="1.1" id="Layer_1" xmlns="http://www.w3.org/2000/svg" xmlns:xlink="http://www.w3.org/1999/xlink" x="0px" y="0px"
	 viewBox="0 0 32 32" style="enable-background:new 0 0 32 32;" xml:space="preserve">
<style type="text/css">
	.st0{fill:#FFFFFF;}
</style>
<path class="st0" d="M29.5,32l-27,0C1.1,32,0,30.9,0,29.5l0-27C0,1.1,1.1,0,2.5,0l27,0C30.9,0,32,1.1,32,2.5l0,27
	C32,30.9,30.9,32,29.5,32z"/>
<g>
	<path d="M9.8,15.9v7.2c0,1.2,0.1,2.1,0.2,2.7c0.1,0.6,0.4,1.1,0.8,1.5c0.3,0.4,0.7,0.6,1.2,0.8c0.4,0.2,1,0.3,1.7,0.3v0.4H2v-0.4
		c0.6,0,1.1-0.1,1.7-0.3c0.5-0.2,0.9-0.4,1.2-0.8c0.3-0.4,0.6-0.9,0.7-1.5c0.1-0.7,0.2-1.6,0.2-2.7V9.8c0-0.8,0-1.6-0.1-2.4
		C5.6,6.3,5,5.5,4.1,5C3.6,4.7,2.9,4.5,2,4.5V4.2h19l0.5,5.7L21.1,10c-0.3-0.9-0.6-1.6-0.8-2.1c-0.6-1.1-1.4-1.9-2.4-2.5
		c-0.6-0.3-1.3-0.6-2.1-0.7C15,4.7,14,4.6,12.6,4.6H9.8v10.7h0.7c2.1,0,3.7-0.5,4.7-1.4c0.4-0.4,0.7-0.9,1-1.5
		c0.2-0.6,0.4-1.3,0.4-2.2l0.4,0l-0.1,11h-0.4c-0.1-1.2-0.4-2.2-0.7-2.9c-0.3-0.7-0.8-1.2-1.5-1.6c-0.5-0.3-1.1-0.5-1.8-0.7
		C11.8,16,10.9,15.9,9.8,15.9z"/>
	<path d="M24.5,13.6H29v0.7h-4.6v10.5c0,1.3,0.2,2.2,0.6,2.7c0.2,0.3,0.5,0.5,0.9,0.7c0.4,0.2,0.8,0.3,1.2,0.3c0.5,0,1-0.1,1.3-0.3
		c0.4-0.2,0.8-0.6,1.2-1.2l0.3,0.2c-0.4,0.7-0.9,1.3-1.7,1.6c-0.7,0.3-1.6,0.5-2.7,0.5c-1.4,0-2.4-0.3-3.1-0.8
		c-0.3-0.3-0.6-0.6-0.7-1c-0.1-0.4-0.2-1.1-0.2-2.2V14.3h-1.9V14c0.8-0.3,1.5-0.7,2.2-1.5c0.4-0.4,0.7-0.9,1-1.3
		c0.2-0.4,0.5-1,0.7-1.7l0.2-0.6h0.7V13.6z"/>
</g>
</svg>
