<?xml version="1.0" encoding="utf-8"?>
<!-- Generator: Adobe Illustrator 24.2.3, SVG Export Plug-In . SVG Version: 6.00 Build 0)  -->
<svg version="1.1" xmlns="http://www.w3.org/2000/svg" xmlns:xlink="http://www.w3.org/1999/xlink" x="0px" y="0px"
	 viewBox="0 0 500 500" style="enable-background:new 0 0 500 500;" xml:space="preserve">
<style type="text/css">
	.st0{fill:#1A1A1A;}
	.st1{fill:#FFFFFF;}
</style>
<g id="Layer_1">
	<rect x="-6" y="-6" class="st0" width="512" height="512"/>
</g>
<g id="Layer_2">
	<g>
		<path class="st1" d="M166.8,240.4v97.1c0,16.5,0.9,28.8,2.7,36.6c1.8,7.9,5.2,14.5,10.2,19.8c4.4,4.7,9.5,8.2,15.5,10.3
			c5.9,2.2,13.5,3.5,22.8,4v5.6H62.4v-5.6c7.8,0,15.2-1.3,22.1-3.8c7-2.5,12.4-5.9,16.3-10.1c4.5-5,7.8-11.9,9.7-20.7
			s2.9-20.8,2.9-36.3V158.1c0-10.4-0.6-21.2-1.7-32.4c-1.6-14.3-8.6-24.9-20.9-31.9c-6.8-3.7-16.3-5.9-28.5-6.6v-5.6h254.3l7.1,79.1
			l-5.6,1.2c-4.1-12.3-7.8-21.6-11.2-27.7c-7.6-14.1-18.3-25.1-32.1-32.9c-8-4.5-17.1-7.7-27.5-9.5c-10.4-1.8-24.7-2.7-42.8-2.7
			h-37.7v143.6h9.7c28.7,0,49.6-6.4,62.5-19.2c5.7-5.5,10-12,12.9-19.6c2.9-7.5,4.9-17.4,5.8-29.6l5.6,0.2L262,312.2h-5.8
			c-1.8-16.5-4.8-29.3-9.1-38.3c-4.3-9-10.8-16.3-19.6-21.8c-6.5-4.1-14.5-7-24-8.9C193.9,241.3,181.7,240.4,166.8,240.4z"/>
		<path class="st1" d="M363.5,209.4h61.1v9.1h-61.1v140.1c0,16.8,2.9,28.9,8.6,36.1c3,4,7,7.1,12,9.4c5,2.2,10.3,3.4,16.1,3.4
			c7.2,0,13.2-1.5,18-4.5c4.8-3,10.1-8.4,15.8-16.2l3.6,3.1c-5.3,9.6-12.7,16.8-22.3,21.4c-9.5,4.7-21.5,7-35.7,7
			c-18.9,0-32.7-3.7-41.4-11.1c-4.7-3.9-7.7-8.5-9.1-13.8c-1.4-5.4-2.2-15-2.2-29V218.5h-25.7v-3.9c10.4-3.4,20.1-9.9,28.9-19.5
			c5.3-5.9,9.6-11.8,12.8-17.7c3.2-5.9,6.3-13.4,9.2-22.7l2.4-7.9h9V209.4z"/>
	</g>
</g>
</svg>
